M48
; DRILL file {KiCad 7.0.10} date Tue Jan  7 08:37:26 2025
; FORMAT={-:-/ absolute / inch / decimal}
; #@! TF.CreationDate,2025-01-07T08:37:26+09:00
; #@! TF.GenerationSoftware,Kicad,Pcbnew,7.0.10
; #@! TF.FileFunction,NonPlated,1,2,NPTH
FMAT,2
INCH
; #@! TA.AperFunction,NonPlated,NPTH,ComponentDrill
T1C0.0433
; #@! TA.AperFunction,NonPlated,NPTH,ComponentDrill
T2C0.0630
; #@! TA.AperFunction,NonPlated,NPTH,ComponentDrill
T3C0.0748
; #@! TA.AperFunction,NonPlated,NPTH,ComponentDrill
T4C0.0866
; #@! TA.AperFunction,NonPlated,NPTH,ComponentDrill
T5C0.1181
; #@! TA.AperFunction,NonPlated,NPTH,ComponentDrill
T6C0.1654
; #@! TA.AperFunction,NonPlated,NPTH,ComponentDrill
T7C0.1969
%
G90
G05
T1
X5.94Y-3.8465
T2
X1.1474Y-3.7618
X1.2974Y-3.0118
X1.3912Y-4.5118
X1.4474Y-2.2618
X1.8974Y-3.7618
X2.0474Y-3.0118
X2.1974Y-2.2618
X2.6474Y-3.7618
X2.7974Y-3.0118
X2.9474Y-2.2618
X3.5756Y-3.8531
X3.7256Y-3.1031
X3.841Y-4.7762
X3.8756Y-2.3531
X4.268Y-4.1416
X4.4179Y-3.3916
X4.5333Y-5.0646
X4.5679Y-2.6416
X4.9603Y-4.43
X5.1103Y-3.68
X5.2602Y-2.93
X5.3122Y-5.3892
X6.8524Y-5.2378
X6.9043Y-2.7786
X7.0543Y-3.5286
X7.2043Y-4.2786
X7.5967Y-2.4902
X7.6313Y-4.9132
X7.7467Y-3.2402
X7.8966Y-3.9902
X8.289Y-2.2017
X8.3236Y-4.6248
X8.439Y-2.9517
X8.589Y-3.7017
X9.2474Y-2.2618
X9.3974Y-3.0118
X9.5474Y-3.7618
X9.9974Y-2.2618
X10.1474Y-3.0118
X10.2974Y-3.7618
X10.7474Y-2.2618
X10.8037Y-4.5118
X10.8974Y-3.0118
X11.0474Y-3.7618
T3
X0.7341Y-3.9646
X0.8841Y-3.2146
X0.9778Y-4.7146
X1.0341Y-2.4646
X1.1671Y-3.9646
X1.3171Y-3.2146
X1.4109Y-4.7146
X1.4671Y-2.4646
X1.4841Y-3.9646
X1.6341Y-3.2146
X1.7841Y-2.4646
X1.9171Y-3.9646
X2.0671Y-3.2146
X2.2171Y-2.4646
X2.2341Y-3.9646
X2.3841Y-3.2146
X2.5341Y-2.4646
X2.6671Y-3.9646
X2.8171Y-3.2146
X2.9671Y-2.4646
X3.1161Y-3.8813
X3.2661Y-3.1313
X3.3814Y-4.8044
X3.4161Y-2.3813
X3.5158Y-4.0479
X3.6658Y-3.2979
X3.7812Y-4.9709
X3.8084Y-4.1698
X3.8158Y-2.5479
X3.9584Y-3.4198
X4.0738Y-5.0928
X4.1084Y-2.6698
X4.2082Y-4.3363
X4.3581Y-3.5863
X4.4735Y-5.2594
X4.5007Y-4.4582
X4.5081Y-2.8363
X4.6507Y-3.7082
X4.8007Y-2.9582
X4.8526Y-5.4173
X4.9005Y-4.6248
X5.0505Y-3.8748
X5.2004Y-3.1248
X5.2524Y-5.5839
X6.5488Y-5.5839
X6.6007Y-3.1248
X6.7507Y-3.8748
X6.9007Y-4.6248
X6.9486Y-5.4173
X7.0005Y-2.9582
X7.1505Y-3.7082
X7.2931Y-2.8363
X7.3005Y-4.4582
X7.3277Y-5.2594
X7.443Y-3.5863
X7.593Y-4.3363
X7.6928Y-2.6698
X7.7274Y-5.0928
X7.8428Y-3.4198
X7.9854Y-2.5479
X7.9928Y-4.1698
X8.02Y-4.9709
X8.1354Y-3.2979
X8.2853Y-4.0479
X8.3851Y-2.3813
X8.4197Y-4.8044
X8.5351Y-3.1313
X8.6851Y-3.8813
X8.8341Y-2.4646
X8.9841Y-3.2146
X9.1341Y-3.9646
X9.2671Y-2.4646
X9.4171Y-3.2146
X9.5671Y-3.9646
X9.5841Y-2.4646
X9.7341Y-3.2146
X9.8841Y-3.9646
X10.0171Y-2.4646
X10.1671Y-3.2146
X10.3171Y-3.9646
X10.3341Y-2.4646
X10.3903Y-4.7146
X10.4841Y-3.2146
X10.6341Y-3.9646
X10.7671Y-2.4646
X10.8234Y-4.7146
X10.9171Y-3.2146
X11.0671Y-3.9646
T5
X0.7537Y-4.1142
X0.9037Y-3.3642
X0.9506Y-4.1969
X0.9975Y-4.8642
X1.0537Y-2.6142
X1.1006Y-3.4469
X1.1943Y-4.9469
X1.2506Y-2.6969
X1.5037Y-4.1142
X1.6537Y-3.3642
X1.7006Y-4.1969
X1.8037Y-2.6142
X1.8506Y-3.4469
X2.0006Y-2.6969
X2.2537Y-4.1142
X2.4037Y-3.3642
X2.4506Y-4.1969
X2.5537Y-2.6142
X2.6006Y-3.4469
X2.7506Y-2.6969
X3.0767Y-4.027
X3.2266Y-4.179
X3.2267Y-3.277
X3.3421Y-4.95
X3.3766Y-3.429
X3.3767Y-2.527
X3.492Y-5.1021
X3.5266Y-2.679
X3.769Y-4.3154
X3.9189Y-4.4675
X3.919Y-3.5654
X4.0344Y-5.2385
X4.0689Y-3.7175
X4.069Y-2.8154
X4.1843Y-5.3905
X4.2189Y-2.9675
X4.4613Y-4.6039
X4.6112Y-4.7559
X4.6113Y-3.8539
X4.7612Y-4.0059
X4.7613Y-3.1039
X4.8132Y-5.563
X4.9112Y-3.2559
X4.9631Y-5.715
X6.6245Y-5.7144
X6.6765Y-3.2553
X6.8264Y-4.0053
X6.838Y-5.715
X6.89Y-3.2559
X6.9764Y-4.7553
X7.0399Y-4.0059
X7.1899Y-4.7559
X7.3688Y-2.9668
X7.4034Y-5.3899
X7.5188Y-3.7168
X7.5823Y-2.9675
X7.6169Y-5.3905
X7.6687Y-4.4669
X7.7323Y-3.7175
X7.8822Y-4.4675
X8.0611Y-2.6784
X8.0957Y-5.1015
X8.2111Y-3.4284
X8.2746Y-2.679
X8.3092Y-5.1021
X8.3611Y-4.1784
X8.4246Y-3.429
X8.5746Y-4.179
X8.8537Y-2.6142
X9.0037Y-3.3642
X9.0506Y-2.6969
X9.1537Y-4.1142
X9.2006Y-3.4469
X9.3506Y-4.1969
X9.6037Y-2.6142
X9.7537Y-3.3642
X9.8006Y-2.6969
X9.9037Y-4.1142
X9.9506Y-3.4469
X10.1006Y-4.1969
X10.3537Y-2.6142
X10.41Y-4.8642
X10.5037Y-3.3642
X10.5506Y-2.6969
X10.6069Y-4.9469
X10.6537Y-4.1142
X10.7006Y-3.4469
X10.8506Y-4.1969
T7
X0.9506Y-3.9646
X1.1006Y-3.2146
X1.1943Y-4.7146
X1.2506Y-2.4646
X1.7006Y-3.9646
X1.8506Y-3.2146
X2.0006Y-2.4646
X2.4506Y-3.9646
X2.6006Y-3.2146
X2.7506Y-2.4646
X3.316Y-3.9646
X3.4659Y-3.2146
X3.5813Y-4.8876
X3.6159Y-2.4646
X4.0083Y-4.253
X4.1583Y-3.503
X4.2736Y-5.1761
X4.3082Y-2.753
X4.7006Y-4.5415
X4.8506Y-3.7915
X5.0006Y-3.0415
X5.0525Y-5.5006
X6.7487Y-5.5006
X6.8006Y-3.0415
X6.9506Y-3.7915
X7.1006Y-4.5415
X7.4929Y-2.753
X7.5275Y-5.1761
X7.6429Y-3.503
X7.7929Y-4.253
X8.1852Y-2.4646
X8.2199Y-4.8876
X8.3352Y-3.2146
X8.4852Y-3.9646
X9.0506Y-2.4646
X9.2006Y-3.2146
X9.3506Y-3.9646
X9.8006Y-2.4646
X9.9506Y-3.2146
X10.1006Y-3.9646
X10.5506Y-2.4646
X10.6069Y-4.7146
X10.7006Y-3.2146
X10.8506Y-3.9646
T4
G00X5.1344Y-4.9413
M15
G01X5.1704Y-4.9264
M16
G05
G00X5.3006Y-4.6139
M15
G01X5.2858Y-4.5778
M16
G05
G00X5.483Y-5.0566
M15
G01X5.4978Y-5.0927
M16
G05
G00X5.6492Y-4.7293
M15
G01X5.6132Y-4.7441
M16
G05
G00X5.7037Y-5.4606
M15
G01X5.7313Y-5.4882
M16
G05
G00X5.7313Y-5.8268
M15
G01X5.7037Y-5.8543
M16
G05
G00X6.0699Y-5.4882
M15
G01X6.0974Y-5.4606
M16
G05
G00X6.0974Y-5.8543
M15
G01X6.0699Y-5.8268
M16
G05
G00X6.188Y-4.7441
M15
G01X6.152Y-4.7293
M16
G05
G00X6.3034Y-5.0927
M15
G01X6.3182Y-5.0566
M16
G05
G00X6.5154Y-4.5778
M15
G01X6.5005Y-4.6139
M16
G05
G00X6.6308Y-4.9264
M15
G01X6.6668Y-4.9413
M16
G05
T6
G00X1.2278Y-4.3396
M15
G01X1.3183Y-4.3396
M16
G05
G00X1.6256Y-2.3223
M15
G01X1.6256Y-2.2318
M16
G05
G00X4.2571Y-2.1422
M15
G01X4.3477Y-2.1422
M16
G05
G00X4.7212Y-5.2159
M15
G01X4.756Y-5.1323
M16
G05
G00X7.0452Y-5.1323
M15
G01X7.08Y-5.2159
M16
G05
G00X7.4535Y-2.1422
M15
G01X7.5441Y-2.1422
M16
G05
G00X10.1756Y-2.3223
M15
G01X10.1756Y-2.2318
M16
G05
G00X10.4828Y-4.3396
M15
G01X10.5734Y-4.3396
M16
G05
M30
