%TF.GenerationSoftware,KiCad,Pcbnew,7.0.10*%
%TF.CreationDate,2025-01-07T08:37:08+09:00*%
%TF.ProjectId,editor,65646974-6f72-42e6-9b69-6361645f7063,rev?*%
%TF.SameCoordinates,Original*%
%TF.FileFunction,Legend,Top*%
%TF.FilePolarity,Positive*%
%FSLAX46Y46*%
G04 Gerber Fmt 4.6, Leading zero omitted, Abs format (unit mm)*
G04 Created by KiCad (PCBNEW 7.0.10) date 2025-01-07 08:37:08*
%MOMM*%
%LPD*%
G01*
G04 APERTURE LIST*
%ADD10C,0.150000*%
%ADD11C,0.400000*%
%ADD12C,0.120000*%
G04 APERTURE END LIST*
D10*
X184253126Y-60928605D02*
X183813563Y-61111749D01*
X183813563Y-61111749D02*
X183428962Y-60188666D01*
X184359363Y-60316885D02*
X184667057Y-60188685D01*
X185000384Y-60617261D02*
X184560821Y-60800405D01*
X184560821Y-60800405D02*
X184176219Y-59877322D01*
X184176219Y-59877322D02*
X184615783Y-59694178D01*
X185395991Y-60452432D02*
X185011389Y-59529349D01*
X185011389Y-59529349D02*
X185231171Y-59437777D01*
X185231171Y-59437777D02*
X185381354Y-59426791D01*
X185381354Y-59426791D02*
X185505896Y-59478075D01*
X185505896Y-59478075D02*
X185586481Y-59547673D01*
X185586481Y-59547673D02*
X185703695Y-59705184D01*
X185703695Y-59705184D02*
X185758638Y-59837053D01*
X185758638Y-59837053D02*
X185787939Y-60031192D01*
X185787939Y-60031192D02*
X185780611Y-60137419D01*
X185780611Y-60137419D02*
X185729327Y-60261961D01*
X185729327Y-60261961D02*
X185615773Y-60360860D01*
X185615773Y-60360860D02*
X185395991Y-60452432D01*
X186802593Y-59866373D02*
X186275117Y-60086145D01*
X186538855Y-59976259D02*
X186154254Y-59053176D01*
X186154254Y-59053176D02*
X186121284Y-59221674D01*
X186121284Y-59221674D02*
X186070000Y-59346215D01*
X186070000Y-59346215D02*
X186000402Y-59426800D01*
X175022299Y-64774620D02*
X174582736Y-64957764D01*
X174582736Y-64957764D02*
X174198135Y-64034681D01*
X175128536Y-64162900D02*
X175436230Y-64034700D01*
X175769557Y-64463276D02*
X175329994Y-64646420D01*
X175329994Y-64646420D02*
X174945392Y-63723337D01*
X174945392Y-63723337D02*
X175384956Y-63540193D01*
X176165164Y-64298447D02*
X175780562Y-63375364D01*
X175780562Y-63375364D02*
X176000344Y-63283792D01*
X176000344Y-63283792D02*
X176150527Y-63272806D01*
X176150527Y-63272806D02*
X176275069Y-63324090D01*
X176275069Y-63324090D02*
X176355654Y-63393688D01*
X176355654Y-63393688D02*
X176472868Y-63551199D01*
X176472868Y-63551199D02*
X176527811Y-63683068D01*
X176527811Y-63683068D02*
X176557112Y-63877207D01*
X176557112Y-63877207D02*
X176549784Y-63983434D01*
X176549784Y-63983434D02*
X176498500Y-64107976D01*
X176498500Y-64107976D02*
X176384946Y-64206875D01*
X176384946Y-64206875D02*
X176165164Y-64298447D01*
X176615733Y-63027392D02*
X177187165Y-62789305D01*
X177187165Y-62789305D02*
X177025985Y-63269156D01*
X177025985Y-63269156D02*
X177157854Y-63214213D01*
X177157854Y-63214213D02*
X177264081Y-63221540D01*
X177264081Y-63221540D02*
X177326352Y-63247182D01*
X177326352Y-63247182D02*
X177406937Y-63316781D01*
X177406937Y-63316781D02*
X177498509Y-63536562D01*
X177498509Y-63536562D02*
X177491181Y-63642789D01*
X177491181Y-63642789D02*
X177465539Y-63705060D01*
X177465539Y-63705060D02*
X177395941Y-63785645D01*
X177395941Y-63785645D02*
X177132203Y-63895531D01*
X177132203Y-63895531D02*
X177025976Y-63888204D01*
X177025976Y-63888204D02*
X176963705Y-63862562D01*
X236736418Y-128529815D02*
X236879275Y-128577434D01*
X236879275Y-128577434D02*
X237117370Y-128577434D01*
X237117370Y-128577434D02*
X237212608Y-128529815D01*
X237212608Y-128529815D02*
X237260227Y-128482195D01*
X237260227Y-128482195D02*
X237307846Y-128386957D01*
X237307846Y-128386957D02*
X237307846Y-128291719D01*
X237307846Y-128291719D02*
X237260227Y-128196481D01*
X237260227Y-128196481D02*
X237212608Y-128148862D01*
X237212608Y-128148862D02*
X237117370Y-128101243D01*
X237117370Y-128101243D02*
X236926894Y-128053624D01*
X236926894Y-128053624D02*
X236831656Y-128006005D01*
X236831656Y-128006005D02*
X236784037Y-127958386D01*
X236784037Y-127958386D02*
X236736418Y-127863148D01*
X236736418Y-127863148D02*
X236736418Y-127767910D01*
X236736418Y-127767910D02*
X236784037Y-127672672D01*
X236784037Y-127672672D02*
X236831656Y-127625053D01*
X236831656Y-127625053D02*
X236926894Y-127577434D01*
X236926894Y-127577434D02*
X237164989Y-127577434D01*
X237164989Y-127577434D02*
X237307846Y-127625053D01*
X237641180Y-127577434D02*
X237879275Y-128577434D01*
X237879275Y-128577434D02*
X238069751Y-127863148D01*
X238069751Y-127863148D02*
X238260227Y-128577434D01*
X238260227Y-128577434D02*
X238498323Y-127577434D01*
X239307846Y-127910767D02*
X239307846Y-128577434D01*
X239069751Y-127529815D02*
X238831656Y-128244100D01*
X238831656Y-128244100D02*
X239450703Y-128244100D01*
X240307846Y-127577434D02*
X239831656Y-127577434D01*
X239831656Y-127577434D02*
X239784037Y-128053624D01*
X239784037Y-128053624D02*
X239831656Y-128006005D01*
X239831656Y-128006005D02*
X239926894Y-127958386D01*
X239926894Y-127958386D02*
X240164989Y-127958386D01*
X240164989Y-127958386D02*
X240260227Y-128006005D01*
X240260227Y-128006005D02*
X240307846Y-128053624D01*
X240307846Y-128053624D02*
X240355465Y-128148862D01*
X240355465Y-128148862D02*
X240355465Y-128386957D01*
X240355465Y-128386957D02*
X240307846Y-128482195D01*
X240307846Y-128482195D02*
X240260227Y-128529815D01*
X240260227Y-128529815D02*
X240164989Y-128577434D01*
X240164989Y-128577434D02*
X239926894Y-128577434D01*
X239926894Y-128577434D02*
X239831656Y-128529815D01*
X239831656Y-128529815D02*
X239784037Y-128482195D01*
X117696477Y-61998771D02*
X117256914Y-61815627D01*
X117256914Y-61815627D02*
X117641515Y-60892545D01*
X118205630Y-61643452D02*
X118513324Y-61771652D01*
X118443735Y-62310115D02*
X118004172Y-62126971D01*
X118004172Y-62126971D02*
X118388773Y-61203889D01*
X118388773Y-61203889D02*
X118828336Y-61387032D01*
X118839342Y-62474944D02*
X119223943Y-61551862D01*
X119223943Y-61551862D02*
X119443725Y-61643433D01*
X119443725Y-61643433D02*
X119557279Y-61742333D01*
X119557279Y-61742333D02*
X119608563Y-61866874D01*
X119608563Y-61866874D02*
X119615891Y-61973101D01*
X119615891Y-61973101D02*
X119586590Y-62167241D01*
X119586590Y-62167241D02*
X119531647Y-62299110D01*
X119531647Y-62299110D02*
X119414433Y-62456621D01*
X119414433Y-62456621D02*
X119333848Y-62526219D01*
X119333848Y-62526219D02*
X119209307Y-62577503D01*
X119209307Y-62577503D02*
X119059123Y-62566516D01*
X119059123Y-62566516D02*
X118839342Y-62474944D01*
X119806381Y-62877860D02*
X119982206Y-62951117D01*
X119982206Y-62951117D02*
X120088433Y-62943790D01*
X120088433Y-62943790D02*
X120150704Y-62918148D01*
X120150704Y-62918148D02*
X120293560Y-62822908D01*
X120293560Y-62822908D02*
X120410773Y-62665397D01*
X120410773Y-62665397D02*
X120557288Y-62313746D01*
X120557288Y-62313746D02*
X120549960Y-62207519D01*
X120549960Y-62207519D02*
X120524319Y-62145248D01*
X120524319Y-62145248D02*
X120454720Y-62064663D01*
X120454720Y-62064663D02*
X120278895Y-61991406D01*
X120278895Y-61991406D02*
X120172668Y-61998734D01*
X120172668Y-61998734D02*
X120110397Y-62024376D01*
X120110397Y-62024376D02*
X120029812Y-62093974D01*
X120029812Y-62093974D02*
X119938240Y-62313755D01*
X119938240Y-62313755D02*
X119945568Y-62419982D01*
X119945568Y-62419982D02*
X119971210Y-62482253D01*
X119971210Y-62482253D02*
X120040808Y-62562838D01*
X120040808Y-62562838D02*
X120216634Y-62636096D01*
X120216634Y-62636096D02*
X120322861Y-62628768D01*
X120322861Y-62628768D02*
X120385131Y-62603126D01*
X120385131Y-62603126D02*
X120465716Y-62533528D01*
X132774530Y-122886305D02*
X132873430Y-122772751D01*
X132873430Y-122772751D02*
X132965001Y-122552969D01*
X132965001Y-122552969D02*
X132957674Y-122446742D01*
X132957674Y-122446742D02*
X132932032Y-122384472D01*
X132932032Y-122384472D02*
X132862434Y-122303886D01*
X132862434Y-122303886D02*
X132774521Y-122267258D01*
X132774521Y-122267258D02*
X132668294Y-122274585D01*
X132668294Y-122274585D02*
X132606023Y-122300227D01*
X132606023Y-122300227D02*
X132525438Y-122369826D01*
X132525438Y-122369826D02*
X132408225Y-122527337D01*
X132408225Y-122527337D02*
X132327639Y-122596935D01*
X132327639Y-122596935D02*
X132265369Y-122622577D01*
X132265369Y-122622577D02*
X132159142Y-122629904D01*
X132159142Y-122629904D02*
X132071229Y-122593276D01*
X132071229Y-122593276D02*
X132001631Y-122512691D01*
X132001631Y-122512691D02*
X131975989Y-122450420D01*
X131975989Y-122450420D02*
X131968661Y-122344193D01*
X131968661Y-122344193D02*
X132060233Y-122124411D01*
X132060233Y-122124411D02*
X132159132Y-122010857D01*
X132243377Y-121684848D02*
X133258031Y-121849668D01*
X133258031Y-121849668D02*
X132671944Y-121399127D01*
X132671944Y-121399127D02*
X133404546Y-121498017D01*
X133404546Y-121498017D02*
X132573035Y-120893634D01*
X133192073Y-120274578D02*
X133807462Y-120530979D01*
X132748851Y-120347844D02*
X133316624Y-120842341D01*
X133316624Y-120842341D02*
X133554711Y-120270909D01*
X133049208Y-119750770D02*
X133305609Y-119135382D01*
X133305609Y-119135382D02*
X134063863Y-119915590D01*
X170406885Y-66697627D02*
X169967322Y-66880771D01*
X169967322Y-66880771D02*
X169582721Y-65957688D01*
X170513122Y-66085907D02*
X170820816Y-65957707D01*
X171154143Y-66386283D02*
X170714580Y-66569427D01*
X170714580Y-66569427D02*
X170329978Y-65646344D01*
X170329978Y-65646344D02*
X170769542Y-65463200D01*
X171549750Y-66221454D02*
X171165148Y-65298371D01*
X171165148Y-65298371D02*
X171384930Y-65206799D01*
X171384930Y-65206799D02*
X171535113Y-65195813D01*
X171535113Y-65195813D02*
X171659655Y-65247097D01*
X171659655Y-65247097D02*
X171740240Y-65316695D01*
X171740240Y-65316695D02*
X171857454Y-65474206D01*
X171857454Y-65474206D02*
X171912397Y-65606075D01*
X171912397Y-65606075D02*
X171941698Y-65800214D01*
X171941698Y-65800214D02*
X171934370Y-65906441D01*
X171934370Y-65906441D02*
X171883086Y-66030983D01*
X171883086Y-66030983D02*
X171769532Y-66129882D01*
X171769532Y-66129882D02*
X171549750Y-66221454D01*
X172612039Y-65056635D02*
X172868440Y-65672023D01*
X172245742Y-64796556D02*
X172300676Y-65547473D01*
X172300676Y-65547473D02*
X172872108Y-65309386D01*
X148018081Y-104087674D02*
X148160938Y-104135293D01*
X148160938Y-104135293D02*
X148399033Y-104135293D01*
X148399033Y-104135293D02*
X148494271Y-104087674D01*
X148494271Y-104087674D02*
X148541890Y-104040054D01*
X148541890Y-104040054D02*
X148589509Y-103944816D01*
X148589509Y-103944816D02*
X148589509Y-103849578D01*
X148589509Y-103849578D02*
X148541890Y-103754340D01*
X148541890Y-103754340D02*
X148494271Y-103706721D01*
X148494271Y-103706721D02*
X148399033Y-103659102D01*
X148399033Y-103659102D02*
X148208557Y-103611483D01*
X148208557Y-103611483D02*
X148113319Y-103563864D01*
X148113319Y-103563864D02*
X148065700Y-103516245D01*
X148065700Y-103516245D02*
X148018081Y-103421007D01*
X148018081Y-103421007D02*
X148018081Y-103325769D01*
X148018081Y-103325769D02*
X148065700Y-103230531D01*
X148065700Y-103230531D02*
X148113319Y-103182912D01*
X148113319Y-103182912D02*
X148208557Y-103135293D01*
X148208557Y-103135293D02*
X148446652Y-103135293D01*
X148446652Y-103135293D02*
X148589509Y-103182912D01*
X148922843Y-103135293D02*
X149160938Y-104135293D01*
X149160938Y-104135293D02*
X149351414Y-103421007D01*
X149351414Y-103421007D02*
X149541890Y-104135293D01*
X149541890Y-104135293D02*
X149779986Y-103135293D01*
X150637128Y-103135293D02*
X150160938Y-103135293D01*
X150160938Y-103135293D02*
X150113319Y-103611483D01*
X150113319Y-103611483D02*
X150160938Y-103563864D01*
X150160938Y-103563864D02*
X150256176Y-103516245D01*
X150256176Y-103516245D02*
X150494271Y-103516245D01*
X150494271Y-103516245D02*
X150589509Y-103563864D01*
X150589509Y-103563864D02*
X150637128Y-103611483D01*
X150637128Y-103611483D02*
X150684747Y-103706721D01*
X150684747Y-103706721D02*
X150684747Y-103944816D01*
X150684747Y-103944816D02*
X150637128Y-104040054D01*
X150637128Y-104040054D02*
X150589509Y-104087674D01*
X150589509Y-104087674D02*
X150494271Y-104135293D01*
X150494271Y-104135293D02*
X150256176Y-104135293D01*
X150256176Y-104135293D02*
X150160938Y-104087674D01*
X150160938Y-104087674D02*
X150113319Y-104040054D01*
X151303795Y-103135293D02*
X151399033Y-103135293D01*
X151399033Y-103135293D02*
X151494271Y-103182912D01*
X151494271Y-103182912D02*
X151541890Y-103230531D01*
X151541890Y-103230531D02*
X151589509Y-103325769D01*
X151589509Y-103325769D02*
X151637128Y-103516245D01*
X151637128Y-103516245D02*
X151637128Y-103754340D01*
X151637128Y-103754340D02*
X151589509Y-103944816D01*
X151589509Y-103944816D02*
X151541890Y-104040054D01*
X151541890Y-104040054D02*
X151494271Y-104087674D01*
X151494271Y-104087674D02*
X151399033Y-104135293D01*
X151399033Y-104135293D02*
X151303795Y-104135293D01*
X151303795Y-104135293D02*
X151208557Y-104087674D01*
X151208557Y-104087674D02*
X151160938Y-104040054D01*
X151160938Y-104040054D02*
X151113319Y-103944816D01*
X151113319Y-103944816D02*
X151065700Y-103754340D01*
X151065700Y-103754340D02*
X151065700Y-103516245D01*
X151065700Y-103516245D02*
X151113319Y-103325769D01*
X151113319Y-103325769D02*
X151160938Y-103230531D01*
X151160938Y-103230531D02*
X151208557Y-103182912D01*
X151208557Y-103182912D02*
X151303795Y-103135293D01*
X152588101Y-101313065D02*
X152511911Y-101255922D01*
X152511911Y-101255922D02*
X152397625Y-101255922D01*
X152397625Y-101255922D02*
X152283339Y-101313065D01*
X152283339Y-101313065D02*
X152207149Y-101427351D01*
X152207149Y-101427351D02*
X152169054Y-101541637D01*
X152169054Y-101541637D02*
X152130958Y-101770208D01*
X152130958Y-101770208D02*
X152130958Y-101941637D01*
X152130958Y-101941637D02*
X152169054Y-102170208D01*
X152169054Y-102170208D02*
X152207149Y-102284494D01*
X152207149Y-102284494D02*
X152283339Y-102398780D01*
X152283339Y-102398780D02*
X152397625Y-102455922D01*
X152397625Y-102455922D02*
X152473816Y-102455922D01*
X152473816Y-102455922D02*
X152588101Y-102398780D01*
X152588101Y-102398780D02*
X152626197Y-102341637D01*
X152626197Y-102341637D02*
X152626197Y-101941637D01*
X152626197Y-101941637D02*
X152473816Y-101941637D01*
X131542718Y-67767793D02*
X131103155Y-67584649D01*
X131103155Y-67584649D02*
X131487756Y-66661567D01*
X132051871Y-67412474D02*
X132359565Y-67540674D01*
X132289976Y-68079137D02*
X131850413Y-67895993D01*
X131850413Y-67895993D02*
X132235014Y-66972911D01*
X132235014Y-66972911D02*
X132674577Y-67156054D01*
X132685583Y-68243966D02*
X133070184Y-67320884D01*
X133070184Y-67320884D02*
X133289966Y-67412455D01*
X133289966Y-67412455D02*
X133403520Y-67511355D01*
X133403520Y-67511355D02*
X133454804Y-67635896D01*
X133454804Y-67635896D02*
X133462132Y-67742123D01*
X133462132Y-67742123D02*
X133432831Y-67936263D01*
X133432831Y-67936263D02*
X133377888Y-68068132D01*
X133377888Y-68068132D02*
X133260674Y-68225643D01*
X133260674Y-68225643D02*
X133180089Y-68295241D01*
X133180089Y-68295241D02*
X133055548Y-68346525D01*
X133055548Y-68346525D02*
X132905364Y-68335538D01*
X132905364Y-68335538D02*
X132685583Y-68243966D01*
X134388874Y-67870314D02*
X134213049Y-67797057D01*
X134213049Y-67797057D02*
X134106822Y-67804384D01*
X134106822Y-67804384D02*
X134044551Y-67830026D01*
X134044551Y-67830026D02*
X133901695Y-67925267D01*
X133901695Y-67925267D02*
X133784481Y-68082777D01*
X133784481Y-68082777D02*
X133637967Y-68434428D01*
X133637967Y-68434428D02*
X133645294Y-68540655D01*
X133645294Y-68540655D02*
X133670936Y-68602926D01*
X133670936Y-68602926D02*
X133740534Y-68683511D01*
X133740534Y-68683511D02*
X133916360Y-68756768D01*
X133916360Y-68756768D02*
X134022587Y-68749441D01*
X134022587Y-68749441D02*
X134084857Y-68723799D01*
X134084857Y-68723799D02*
X134165442Y-68654200D01*
X134165442Y-68654200D02*
X134257014Y-68434419D01*
X134257014Y-68434419D02*
X134249687Y-68328192D01*
X134249687Y-68328192D02*
X134224045Y-68265921D01*
X134224045Y-68265921D02*
X134154446Y-68185336D01*
X134154446Y-68185336D02*
X133978621Y-68112079D01*
X133978621Y-68112079D02*
X133872394Y-68119406D01*
X133872394Y-68119406D02*
X133810123Y-68145048D01*
X133810123Y-68145048D02*
X133729538Y-68214646D01*
X122311891Y-63921779D02*
X121872328Y-63738635D01*
X121872328Y-63738635D02*
X122256929Y-62815553D01*
X122821044Y-63566460D02*
X123128738Y-63694660D01*
X123059149Y-64233123D02*
X122619586Y-64049979D01*
X122619586Y-64049979D02*
X123004187Y-63126897D01*
X123004187Y-63126897D02*
X123443750Y-63310040D01*
X123454756Y-64397952D02*
X123839357Y-63474870D01*
X123839357Y-63474870D02*
X124059139Y-63566441D01*
X124059139Y-63566441D02*
X124172693Y-63665341D01*
X124172693Y-63665341D02*
X124223977Y-63789882D01*
X124223977Y-63789882D02*
X124231305Y-63896109D01*
X124231305Y-63896109D02*
X124202004Y-64090249D01*
X124202004Y-64090249D02*
X124147061Y-64222118D01*
X124147061Y-64222118D02*
X124029847Y-64379629D01*
X124029847Y-64379629D02*
X123949262Y-64449227D01*
X123949262Y-64449227D02*
X123824721Y-64500511D01*
X123824721Y-64500511D02*
X123674537Y-64489524D01*
X123674537Y-64489524D02*
X123454756Y-64397952D01*
X124729480Y-64310021D02*
X124659881Y-64229436D01*
X124659881Y-64229436D02*
X124634240Y-64167165D01*
X124634240Y-64167165D02*
X124626912Y-64060938D01*
X124626912Y-64060938D02*
X124645226Y-64016982D01*
X124645226Y-64016982D02*
X124725811Y-63947384D01*
X124725811Y-63947384D02*
X124788082Y-63921742D01*
X124788082Y-63921742D02*
X124894309Y-63914414D01*
X124894309Y-63914414D02*
X125070134Y-63987671D01*
X125070134Y-63987671D02*
X125139733Y-64068256D01*
X125139733Y-64068256D02*
X125165374Y-64130527D01*
X125165374Y-64130527D02*
X125172702Y-64236754D01*
X125172702Y-64236754D02*
X125154388Y-64280710D01*
X125154388Y-64280710D02*
X125073803Y-64350309D01*
X125073803Y-64350309D02*
X125011532Y-64375951D01*
X125011532Y-64375951D02*
X124905305Y-64383278D01*
X124905305Y-64383278D02*
X124729480Y-64310021D01*
X124729480Y-64310021D02*
X124623253Y-64317349D01*
X124623253Y-64317349D02*
X124560982Y-64342990D01*
X124560982Y-64342990D02*
X124480397Y-64412589D01*
X124480397Y-64412589D02*
X124407140Y-64588414D01*
X124407140Y-64588414D02*
X124414467Y-64694641D01*
X124414467Y-64694641D02*
X124440109Y-64756912D01*
X124440109Y-64756912D02*
X124509707Y-64837497D01*
X124509707Y-64837497D02*
X124685533Y-64910754D01*
X124685533Y-64910754D02*
X124791760Y-64903427D01*
X124791760Y-64903427D02*
X124854030Y-64877785D01*
X124854030Y-64877785D02*
X124934615Y-64808186D01*
X124934615Y-64808186D02*
X125007873Y-64632361D01*
X125007873Y-64632361D02*
X125000545Y-64526134D01*
X125000545Y-64526134D02*
X124974903Y-64463863D01*
X124974903Y-64463863D02*
X124905305Y-64383278D01*
X179637712Y-62851612D02*
X179198149Y-63034756D01*
X179198149Y-63034756D02*
X178813548Y-62111673D01*
X179743949Y-62239892D02*
X180051643Y-62111692D01*
X180384970Y-62540268D02*
X179945407Y-62723412D01*
X179945407Y-62723412D02*
X179560805Y-61800329D01*
X179560805Y-61800329D02*
X180000369Y-61617185D01*
X180780577Y-62375439D02*
X180395975Y-61452356D01*
X180395975Y-61452356D02*
X180615757Y-61360784D01*
X180615757Y-61360784D02*
X180765940Y-61349798D01*
X180765940Y-61349798D02*
X180890482Y-61401082D01*
X180890482Y-61401082D02*
X180971067Y-61470680D01*
X180971067Y-61470680D02*
X181088281Y-61628191D01*
X181088281Y-61628191D02*
X181143224Y-61760060D01*
X181143224Y-61760060D02*
X181172525Y-61954199D01*
X181172525Y-61954199D02*
X181165197Y-62060426D01*
X181165197Y-62060426D02*
X181113913Y-62184968D01*
X181113913Y-62184968D02*
X181000359Y-62283867D01*
X181000359Y-62283867D02*
X180780577Y-62375439D01*
X181311731Y-61173982D02*
X181337373Y-61111711D01*
X181337373Y-61111711D02*
X181406971Y-61031126D01*
X181406971Y-61031126D02*
X181626752Y-60939554D01*
X181626752Y-60939554D02*
X181732979Y-60946882D01*
X181732979Y-60946882D02*
X181795250Y-60972524D01*
X181795250Y-60972524D02*
X181875835Y-61042122D01*
X181875835Y-61042122D02*
X181912464Y-61130035D01*
X181912464Y-61130035D02*
X181923451Y-61280218D01*
X181923451Y-61280218D02*
X181615747Y-62027466D01*
X181615747Y-62027466D02*
X182187179Y-61789380D01*
X148082059Y-148328829D02*
X148224916Y-148376448D01*
X148224916Y-148376448D02*
X148463011Y-148376448D01*
X148463011Y-148376448D02*
X148558249Y-148328829D01*
X148558249Y-148328829D02*
X148605868Y-148281209D01*
X148605868Y-148281209D02*
X148653487Y-148185971D01*
X148653487Y-148185971D02*
X148653487Y-148090733D01*
X148653487Y-148090733D02*
X148605868Y-147995495D01*
X148605868Y-147995495D02*
X148558249Y-147947876D01*
X148558249Y-147947876D02*
X148463011Y-147900257D01*
X148463011Y-147900257D02*
X148272535Y-147852638D01*
X148272535Y-147852638D02*
X148177297Y-147805019D01*
X148177297Y-147805019D02*
X148129678Y-147757400D01*
X148129678Y-147757400D02*
X148082059Y-147662162D01*
X148082059Y-147662162D02*
X148082059Y-147566924D01*
X148082059Y-147566924D02*
X148129678Y-147471686D01*
X148129678Y-147471686D02*
X148177297Y-147424067D01*
X148177297Y-147424067D02*
X148272535Y-147376448D01*
X148272535Y-147376448D02*
X148510630Y-147376448D01*
X148510630Y-147376448D02*
X148653487Y-147424067D01*
X148986821Y-147376448D02*
X149224916Y-148376448D01*
X149224916Y-148376448D02*
X149415392Y-147662162D01*
X149415392Y-147662162D02*
X149605868Y-148376448D01*
X149605868Y-148376448D02*
X149843964Y-147376448D01*
X150653487Y-147709781D02*
X150653487Y-148376448D01*
X150415392Y-147328829D02*
X150177297Y-148043114D01*
X150177297Y-148043114D02*
X150796344Y-148043114D01*
X151224916Y-148376448D02*
X151415392Y-148376448D01*
X151415392Y-148376448D02*
X151510630Y-148328829D01*
X151510630Y-148328829D02*
X151558249Y-148281209D01*
X151558249Y-148281209D02*
X151653487Y-148138352D01*
X151653487Y-148138352D02*
X151701106Y-147947876D01*
X151701106Y-147947876D02*
X151701106Y-147566924D01*
X151701106Y-147566924D02*
X151653487Y-147471686D01*
X151653487Y-147471686D02*
X151605868Y-147424067D01*
X151605868Y-147424067D02*
X151510630Y-147376448D01*
X151510630Y-147376448D02*
X151320154Y-147376448D01*
X151320154Y-147376448D02*
X151224916Y-147424067D01*
X151224916Y-147424067D02*
X151177297Y-147471686D01*
X151177297Y-147471686D02*
X151129678Y-147566924D01*
X151129678Y-147566924D02*
X151129678Y-147805019D01*
X151129678Y-147805019D02*
X151177297Y-147900257D01*
X151177297Y-147900257D02*
X151224916Y-147947876D01*
X151224916Y-147947876D02*
X151320154Y-147995495D01*
X151320154Y-147995495D02*
X151510630Y-147995495D01*
X151510630Y-147995495D02*
X151605868Y-147947876D01*
X151605868Y-147947876D02*
X151653487Y-147900257D01*
X151653487Y-147900257D02*
X151701106Y-147805019D01*
X165791471Y-68620634D02*
X165351908Y-68803778D01*
X165351908Y-68803778D02*
X164967307Y-67880695D01*
X165897708Y-68008914D02*
X166205402Y-67880714D01*
X166538729Y-68309290D02*
X166099166Y-68492434D01*
X166099166Y-68492434D02*
X165714564Y-67569351D01*
X165714564Y-67569351D02*
X166154128Y-67386207D01*
X166934336Y-68144461D02*
X166549734Y-67221378D01*
X166549734Y-67221378D02*
X166769516Y-67129806D01*
X166769516Y-67129806D02*
X166919699Y-67118820D01*
X166919699Y-67118820D02*
X167044241Y-67170104D01*
X167044241Y-67170104D02*
X167124826Y-67239702D01*
X167124826Y-67239702D02*
X167242040Y-67397213D01*
X167242040Y-67397213D02*
X167296983Y-67529082D01*
X167296983Y-67529082D02*
X167326284Y-67723221D01*
X167326284Y-67723221D02*
X167318956Y-67829448D01*
X167318956Y-67829448D02*
X167267672Y-67953990D01*
X167267672Y-67953990D02*
X167154118Y-68052889D01*
X167154118Y-68052889D02*
X166934336Y-68144461D01*
X167912380Y-66653633D02*
X167472817Y-66836777D01*
X167472817Y-66836777D02*
X167612004Y-67294654D01*
X167612004Y-67294654D02*
X167637646Y-67232384D01*
X167637646Y-67232384D02*
X167707245Y-67151799D01*
X167707245Y-67151799D02*
X167927026Y-67060227D01*
X167927026Y-67060227D02*
X168033253Y-67067554D01*
X168033253Y-67067554D02*
X168095524Y-67093196D01*
X168095524Y-67093196D02*
X168176109Y-67162795D01*
X168176109Y-67162795D02*
X168267681Y-67382576D01*
X168267681Y-67382576D02*
X168260353Y-67488803D01*
X168260353Y-67488803D02*
X168234711Y-67551074D01*
X168234711Y-67551074D02*
X168165113Y-67631659D01*
X168165113Y-67631659D02*
X167945331Y-67723231D01*
X167945331Y-67723231D02*
X167839104Y-67715903D01*
X167839104Y-67715903D02*
X167776834Y-67690261D01*
X112641500Y-59892620D02*
X112201936Y-59709477D01*
X112201936Y-59709477D02*
X112586538Y-58786394D01*
X113150652Y-59537301D02*
X113458346Y-59665502D01*
X113388757Y-60203964D02*
X112949194Y-60020821D01*
X112949194Y-60020821D02*
X113333795Y-59097738D01*
X113333795Y-59097738D02*
X113773359Y-59280882D01*
X113784364Y-60368793D02*
X114168966Y-59445711D01*
X114168966Y-59445711D02*
X114388747Y-59537283D01*
X114388747Y-59537283D02*
X114502302Y-59636182D01*
X114502302Y-59636182D02*
X114553586Y-59760723D01*
X114553586Y-59760723D02*
X114560913Y-59866950D01*
X114560913Y-59866950D02*
X114531612Y-60061090D01*
X114531612Y-60061090D02*
X114476669Y-60192959D01*
X114476669Y-60192959D02*
X114359455Y-60350470D01*
X114359455Y-60350470D02*
X114278870Y-60420068D01*
X114278870Y-60420068D02*
X114154329Y-60471352D01*
X114154329Y-60471352D02*
X114004146Y-60460365D01*
X114004146Y-60460365D02*
X113784364Y-60368793D01*
X115190966Y-60954853D02*
X114663491Y-60735081D01*
X114927228Y-60844967D02*
X115311830Y-59921884D01*
X115311830Y-59921884D02*
X115168974Y-60017124D01*
X115168974Y-60017124D02*
X115044433Y-60068408D01*
X115044433Y-60068408D02*
X114938206Y-60075736D01*
X116147000Y-60269857D02*
X116234913Y-60306485D01*
X116234913Y-60306485D02*
X116304511Y-60387070D01*
X116304511Y-60387070D02*
X116330153Y-60449341D01*
X116330153Y-60449341D02*
X116337481Y-60555568D01*
X116337481Y-60555568D02*
X116308179Y-60749708D01*
X116308179Y-60749708D02*
X116216608Y-60969489D01*
X116216608Y-60969489D02*
X116099394Y-61127000D01*
X116099394Y-61127000D02*
X116018809Y-61196599D01*
X116018809Y-61196599D02*
X115956538Y-61222241D01*
X115956538Y-61222241D02*
X115850311Y-61229568D01*
X115850311Y-61229568D02*
X115762399Y-61192939D01*
X115762399Y-61192939D02*
X115692800Y-61112354D01*
X115692800Y-61112354D02*
X115667158Y-61050084D01*
X115667158Y-61050084D02*
X115659831Y-60943857D01*
X115659831Y-60943857D02*
X115689132Y-60749717D01*
X115689132Y-60749717D02*
X115780704Y-60529936D01*
X115780704Y-60529936D02*
X115897917Y-60372425D01*
X115897917Y-60372425D02*
X115978502Y-60302826D01*
X115978502Y-60302826D02*
X116040773Y-60277184D01*
X116040773Y-60277184D02*
X116147000Y-60269857D01*
X126927304Y-65844786D02*
X126487741Y-65661642D01*
X126487741Y-65661642D02*
X126872342Y-64738560D01*
X127436457Y-65489467D02*
X127744151Y-65617667D01*
X127674562Y-66156130D02*
X127234999Y-65972986D01*
X127234999Y-65972986D02*
X127619600Y-65049904D01*
X127619600Y-65049904D02*
X128059163Y-65233047D01*
X128070169Y-66320959D02*
X128454770Y-65397877D01*
X128454770Y-65397877D02*
X128674552Y-65489448D01*
X128674552Y-65489448D02*
X128788106Y-65588348D01*
X128788106Y-65588348D02*
X128839390Y-65712889D01*
X128839390Y-65712889D02*
X128846718Y-65819116D01*
X128846718Y-65819116D02*
X128817417Y-66013256D01*
X128817417Y-66013256D02*
X128762474Y-66145125D01*
X128762474Y-66145125D02*
X128645260Y-66302636D01*
X128645260Y-66302636D02*
X128564675Y-66372234D01*
X128564675Y-66372234D02*
X128440134Y-66423518D01*
X128440134Y-66423518D02*
X128289950Y-66412531D01*
X128289950Y-66412531D02*
X128070169Y-66320959D01*
X129289940Y-65745849D02*
X129905329Y-66002250D01*
X129905329Y-66002250D02*
X129125120Y-66760504D01*
X165639173Y-119665505D02*
X165650163Y-119815688D01*
X165650163Y-119815688D02*
X165741738Y-120035468D01*
X165741738Y-120035468D02*
X165822325Y-120105065D01*
X165822325Y-120105065D02*
X165884596Y-120130706D01*
X165884596Y-120130706D02*
X165990823Y-120138031D01*
X165990823Y-120138031D02*
X166078735Y-120101401D01*
X166078735Y-120101401D02*
X166148332Y-120020815D01*
X166148332Y-120020815D02*
X166173973Y-119958544D01*
X166173973Y-119958544D02*
X166181298Y-119852317D01*
X166181298Y-119852317D02*
X166151994Y-119658178D01*
X166151994Y-119658178D02*
X166159320Y-119551950D01*
X166159320Y-119551950D02*
X166184960Y-119489679D01*
X166184960Y-119489679D02*
X166254557Y-119409093D01*
X166254557Y-119409093D02*
X166342469Y-119372463D01*
X166342469Y-119372463D02*
X166448696Y-119379789D01*
X166448696Y-119379789D02*
X166510968Y-119405429D01*
X166510968Y-119405429D02*
X166591554Y-119475026D01*
X166591554Y-119475026D02*
X166683129Y-119694806D01*
X166683129Y-119694806D02*
X166694119Y-119844989D01*
X166866281Y-120134366D02*
X166034780Y-120738764D01*
X166034780Y-120738764D02*
X166767381Y-120639861D01*
X166767381Y-120639861D02*
X166181301Y-121090412D01*
X166181301Y-121090412D02*
X167195953Y-120925574D01*
X167199618Y-121801032D02*
X166584234Y-122057444D01*
X167459690Y-121434731D02*
X166708775Y-121489678D01*
X166708775Y-121489678D02*
X166946871Y-122061106D01*
X167368118Y-122453046D02*
X167375443Y-122346819D01*
X167375443Y-122346819D02*
X167401084Y-122284548D01*
X167401084Y-122284548D02*
X167470681Y-122203962D01*
X167470681Y-122203962D02*
X167514637Y-122185647D01*
X167514637Y-122185647D02*
X167620864Y-122192973D01*
X167620864Y-122192973D02*
X167683135Y-122218613D01*
X167683135Y-122218613D02*
X167763722Y-122288210D01*
X167763722Y-122288210D02*
X167836982Y-122464034D01*
X167836982Y-122464034D02*
X167829656Y-122570261D01*
X167829656Y-122570261D02*
X167804015Y-122632533D01*
X167804015Y-122632533D02*
X167734419Y-122713119D01*
X167734419Y-122713119D02*
X167690463Y-122731434D01*
X167690463Y-122731434D02*
X167584235Y-122724108D01*
X167584235Y-122724108D02*
X167521964Y-122698467D01*
X167521964Y-122698467D02*
X167441378Y-122628870D01*
X167441378Y-122628870D02*
X167368118Y-122453046D01*
X167368118Y-122453046D02*
X167287531Y-122383450D01*
X167287531Y-122383450D02*
X167225260Y-122357809D01*
X167225260Y-122357809D02*
X167119033Y-122350483D01*
X167119033Y-122350483D02*
X166943209Y-122423743D01*
X166943209Y-122423743D02*
X166873612Y-122504330D01*
X166873612Y-122504330D02*
X166847971Y-122566601D01*
X166847971Y-122566601D02*
X166840646Y-122672828D01*
X166840646Y-122672828D02*
X166913906Y-122848652D01*
X166913906Y-122848652D02*
X166994492Y-122918249D01*
X166994492Y-122918249D02*
X167056763Y-122943890D01*
X167056763Y-122943890D02*
X167162991Y-122951215D01*
X167162991Y-122951215D02*
X167338815Y-122877955D01*
X167338815Y-122877955D02*
X167408411Y-122797369D01*
X167408411Y-122797369D02*
X167434052Y-122735098D01*
X167434052Y-122735098D02*
X167441378Y-122628870D01*
X59476418Y-128529815D02*
X59619275Y-128577434D01*
X59619275Y-128577434D02*
X59857370Y-128577434D01*
X59857370Y-128577434D02*
X59952608Y-128529815D01*
X59952608Y-128529815D02*
X60000227Y-128482195D01*
X60000227Y-128482195D02*
X60047846Y-128386957D01*
X60047846Y-128386957D02*
X60047846Y-128291719D01*
X60047846Y-128291719D02*
X60000227Y-128196481D01*
X60000227Y-128196481D02*
X59952608Y-128148862D01*
X59952608Y-128148862D02*
X59857370Y-128101243D01*
X59857370Y-128101243D02*
X59666894Y-128053624D01*
X59666894Y-128053624D02*
X59571656Y-128006005D01*
X59571656Y-128006005D02*
X59524037Y-127958386D01*
X59524037Y-127958386D02*
X59476418Y-127863148D01*
X59476418Y-127863148D02*
X59476418Y-127767910D01*
X59476418Y-127767910D02*
X59524037Y-127672672D01*
X59524037Y-127672672D02*
X59571656Y-127625053D01*
X59571656Y-127625053D02*
X59666894Y-127577434D01*
X59666894Y-127577434D02*
X59904989Y-127577434D01*
X59904989Y-127577434D02*
X60047846Y-127625053D01*
X60381180Y-127577434D02*
X60619275Y-128577434D01*
X60619275Y-128577434D02*
X60809751Y-127863148D01*
X60809751Y-127863148D02*
X61000227Y-128577434D01*
X61000227Y-128577434D02*
X61238323Y-127577434D01*
X61524037Y-127577434D02*
X62143084Y-127577434D01*
X62143084Y-127577434D02*
X61809751Y-127958386D01*
X61809751Y-127958386D02*
X61952608Y-127958386D01*
X61952608Y-127958386D02*
X62047846Y-128006005D01*
X62047846Y-128006005D02*
X62095465Y-128053624D01*
X62095465Y-128053624D02*
X62143084Y-128148862D01*
X62143084Y-128148862D02*
X62143084Y-128386957D01*
X62143084Y-128386957D02*
X62095465Y-128482195D01*
X62095465Y-128482195D02*
X62047846Y-128529815D01*
X62047846Y-128529815D02*
X61952608Y-128577434D01*
X61952608Y-128577434D02*
X61666894Y-128577434D01*
X61666894Y-128577434D02*
X61571656Y-128529815D01*
X61571656Y-128529815D02*
X61524037Y-128482195D01*
X62714513Y-128006005D02*
X62619275Y-127958386D01*
X62619275Y-127958386D02*
X62571656Y-127910767D01*
X62571656Y-127910767D02*
X62524037Y-127815529D01*
X62524037Y-127815529D02*
X62524037Y-127767910D01*
X62524037Y-127767910D02*
X62571656Y-127672672D01*
X62571656Y-127672672D02*
X62619275Y-127625053D01*
X62619275Y-127625053D02*
X62714513Y-127577434D01*
X62714513Y-127577434D02*
X62904989Y-127577434D01*
X62904989Y-127577434D02*
X63000227Y-127625053D01*
X63000227Y-127625053D02*
X63047846Y-127672672D01*
X63047846Y-127672672D02*
X63095465Y-127767910D01*
X63095465Y-127767910D02*
X63095465Y-127815529D01*
X63095465Y-127815529D02*
X63047846Y-127910767D01*
X63047846Y-127910767D02*
X63000227Y-127958386D01*
X63000227Y-127958386D02*
X62904989Y-128006005D01*
X62904989Y-128006005D02*
X62714513Y-128006005D01*
X62714513Y-128006005D02*
X62619275Y-128053624D01*
X62619275Y-128053624D02*
X62571656Y-128101243D01*
X62571656Y-128101243D02*
X62524037Y-128196481D01*
X62524037Y-128196481D02*
X62524037Y-128386957D01*
X62524037Y-128386957D02*
X62571656Y-128482195D01*
X62571656Y-128482195D02*
X62619275Y-128529815D01*
X62619275Y-128529815D02*
X62714513Y-128577434D01*
X62714513Y-128577434D02*
X62904989Y-128577434D01*
X62904989Y-128577434D02*
X63000227Y-128529815D01*
X63000227Y-128529815D02*
X63047846Y-128482195D01*
X63047846Y-128482195D02*
X63095465Y-128386957D01*
X63095465Y-128386957D02*
X63095465Y-128196481D01*
X63095465Y-128196481D02*
X63047846Y-128101243D01*
X63047846Y-128101243D02*
X63000227Y-128053624D01*
X63000227Y-128053624D02*
X62904989Y-128006005D01*
%TO.C,LED1*%
X184408578Y-55594787D02*
X185254702Y-57625569D01*
X182377796Y-56440911D02*
X183223920Y-58471693D01*
D11*
X184187486Y-56603399D02*
X184334019Y-56955094D01*
D10*
X183347323Y-57228618D02*
X183347323Y-57228618D01*
X184793557Y-57038793D02*
X183132008Y-57731076D01*
%TO.C,LED3*%
X175177751Y-59440802D02*
X176023875Y-61471584D01*
X173146969Y-60286926D02*
X173993093Y-62317708D01*
D11*
X174956659Y-60449414D02*
X175103192Y-60801109D01*
D10*
X174116496Y-61074633D02*
X174116496Y-61074633D01*
X175562730Y-60884808D02*
X173901181Y-61577091D01*
D12*
%TO.C,SW45*%
X237489000Y-123225000D02*
X239521000Y-123225000D01*
X238505000Y-122209000D02*
X238505000Y-124241000D01*
X241505000Y-123225000D02*
G75*
G03*
X235505000Y-123225000I-3000000J0D01*
G01*
X235505000Y-123225000D02*
G75*
G03*
X241505000Y-123225000I3000000J0D01*
G01*
D10*
%TO.C,LED9*%
X121987618Y-58363918D02*
X121141494Y-60394700D01*
X119956836Y-57517794D02*
X119110712Y-59548576D01*
D11*
X121115780Y-58917162D02*
X120969247Y-59268856D01*
D10*
X120080239Y-58760869D02*
X120080239Y-58760869D01*
X121233406Y-59654083D02*
X119571857Y-58961800D01*
D12*
%TO.C,SW47*%
X141005661Y-121146288D02*
X140728736Y-121030908D01*
X141005661Y-121146288D02*
X138621132Y-126869401D01*
X139251804Y-120415545D02*
X137036405Y-119492502D01*
X135559473Y-118877139D02*
X135282548Y-118761759D01*
X135282548Y-118761759D02*
X132898019Y-124484872D01*
X138344207Y-126754021D02*
X138621132Y-126869401D01*
X136867275Y-126138658D02*
X134651876Y-125215615D01*
X133174944Y-124600252D02*
X132898019Y-124484872D01*
X137951840Y-122815580D02*
G75*
G03*
X135951840Y-122815580I-1000000J0D01*
G01*
X135951840Y-122815580D02*
G75*
G03*
X137951840Y-122815580I1000000J0D01*
G01*
D10*
%TO.C,LED4*%
X170562337Y-61363809D02*
X171408461Y-63394591D01*
X168531555Y-62209933D02*
X169377679Y-64240715D01*
D11*
X170341245Y-62372421D02*
X170487778Y-62724116D01*
D10*
X169501082Y-62997640D02*
X169501082Y-62997640D01*
X170947316Y-62807815D02*
X169285767Y-63500098D01*
D12*
%TO.C,SW50*%
X148816700Y-100400000D02*
X150933300Y-100400000D01*
X152923000Y-100700000D02*
X153939000Y-100700000D01*
X153939000Y-100700000D02*
X153939000Y-102732000D01*
X153939000Y-102732000D02*
X152923000Y-102732000D01*
X150975000Y-100700000D02*
G75*
G03*
X148775000Y-100700000I-1100000J0D01*
G01*
X148775000Y-100700000D02*
G75*
G03*
X150975000Y-100700000I1100000J0D01*
G01*
X151907000Y-100700000D02*
G75*
G03*
X147843000Y-100700000I-2032000J0D01*
G01*
X147843000Y-100700000D02*
G75*
G03*
X151907000Y-100700000I2032000J0D01*
G01*
D10*
%TO.C,LED6*%
X135833859Y-64132940D02*
X134987735Y-66163722D01*
X133803077Y-63286816D02*
X132956953Y-65317598D01*
D11*
X134962021Y-64686184D02*
X134815488Y-65037878D01*
D10*
X133926480Y-64529891D02*
X133926480Y-64529891D01*
X135079647Y-65423105D02*
X133418098Y-64730822D01*
%TO.C,LED8*%
X126603032Y-60286926D02*
X125756908Y-62317708D01*
X124572250Y-59440802D02*
X123726126Y-61471584D01*
D11*
X125731194Y-60840170D02*
X125584661Y-61191864D01*
D10*
X124695653Y-60683877D02*
X124695653Y-60683877D01*
X125848820Y-61577091D02*
X124187271Y-60884808D01*
%TO.C,LED2*%
X179793164Y-57517794D02*
X180639288Y-59548576D01*
X177762382Y-58363918D02*
X178608506Y-60394700D01*
D11*
X179572072Y-58526406D02*
X179718605Y-58878101D01*
D10*
X178731909Y-59151625D02*
X178731909Y-59151625D01*
X180178143Y-58961800D02*
X178516594Y-59654083D01*
D12*
%TO.C,SW49*%
X146775000Y-140600000D02*
X146775000Y-140900000D01*
X146775000Y-140600000D02*
X152975000Y-140600000D01*
X146775000Y-142500000D02*
X146775000Y-144900000D01*
X146775000Y-146500000D02*
X146775000Y-146800000D01*
X146775000Y-146800000D02*
X152975000Y-146800000D01*
X152975000Y-140900000D02*
X152975000Y-140600000D01*
X152975000Y-142500000D02*
X152975000Y-144900000D01*
X152975000Y-146500000D02*
X152975000Y-146800000D01*
X150875000Y-143700000D02*
G75*
G03*
X148875000Y-143700000I-1000000J0D01*
G01*
X148875000Y-143700000D02*
G75*
G03*
X150875000Y-143700000I1000000J0D01*
G01*
D10*
%TO.C,LED5*%
X165946923Y-63286816D02*
X166793047Y-65317598D01*
X163916141Y-64132940D02*
X164762265Y-66163722D01*
D11*
X165725831Y-64295428D02*
X165872364Y-64647123D01*
D10*
X164885668Y-64920647D02*
X164885668Y-64920647D01*
X166331902Y-64730822D02*
X164670353Y-65423105D01*
%TO.C,LED10*%
X117372204Y-56440911D02*
X116526080Y-58471693D01*
X115341422Y-55594787D02*
X114495298Y-57625569D01*
D11*
X116500366Y-56994155D02*
X116353833Y-57345849D01*
D10*
X115464825Y-56837862D02*
X115464825Y-56837862D01*
X116617992Y-57731076D02*
X114956443Y-57038793D01*
%TO.C,LED7*%
X131218445Y-62209933D02*
X130372321Y-64240715D01*
X129187663Y-61363809D02*
X128341539Y-63394591D01*
D11*
X130346607Y-62763177D02*
X130200074Y-63114871D01*
D10*
X129311066Y-62606884D02*
X129311066Y-62606884D01*
X130464233Y-63500098D02*
X128802684Y-62807815D01*
D12*
%TO.C,SW48*%
X161128939Y-126869430D02*
X161405862Y-126754045D01*
X161128939Y-126869430D02*
X158744310Y-121146359D01*
X162882783Y-126138657D02*
X165098166Y-125215575D01*
X166575087Y-124600186D02*
X166852010Y-124484801D01*
X166852010Y-124484801D02*
X164467381Y-118761730D01*
X159021233Y-121030974D02*
X158744310Y-121146359D01*
X160498154Y-120415585D02*
X162713537Y-119492503D01*
X164190458Y-118877115D02*
X164467381Y-118761730D01*
X163798160Y-122815580D02*
G75*
G03*
X161798160Y-122815580I-1000000J0D01*
G01*
X161798160Y-122815580D02*
G75*
G03*
X163798160Y-122815580I1000000J0D01*
G01*
%TO.C,SW38*%
X60229000Y-123225000D02*
X62261000Y-123225000D01*
X61245000Y-122209000D02*
X61245000Y-124241000D01*
X64245000Y-123225000D02*
G75*
G03*
X58245000Y-123225000I-3000000J0D01*
G01*
X58245000Y-123225000D02*
G75*
G03*
X64245000Y-123225000I3000000J0D01*
G01*
%TD*%
M02*
