%TF.GenerationSoftware,KiCad,Pcbnew,7.0.10*%
%TF.CreationDate,2025-01-07T08:37:08+09:00*%
%TF.ProjectId,editor,65646974-6f72-42e6-9b69-6361645f7063,rev?*%
%TF.SameCoordinates,Original*%
%TF.FileFunction,Profile,NP*%
%FSLAX46Y46*%
G04 Gerber Fmt 4.6, Leading zero omitted, Abs format (unit mm)*
G04 Created by KiCad (PCBNEW 7.0.10) date 2025-01-07 08:37:08*
%MOMM*%
%LPD*%
G01*
G04 APERTURE LIST*
%TA.AperFunction,Profile*%
%ADD10C,0.150000*%
%TD*%
G04 APERTURE END LIST*
D10*
X145075000Y-50149623D02*
X25812803Y-50149623D01*
X21119166Y-53426319D02*
G75*
G03*
X15019956Y-125739623I128755834J-47273681D01*
G01*
X156375000Y-72400000D02*
X156375000Y-65344230D01*
X156374970Y-65344230D02*
G75*
G03*
X154675000Y-63644230I-1699970J30D01*
G01*
X144875000Y-73900031D02*
X154875000Y-73900032D01*
X280795510Y-129729566D02*
X167067208Y-152496009D01*
X280795515Y-129729592D02*
G75*
G03*
X284730043Y-125739623I-981415J4902692D01*
G01*
X143374969Y-72400000D02*
G75*
G03*
X144875000Y-73900031I1500031J0D01*
G01*
X154875000Y-73900100D02*
G75*
G03*
X156375000Y-72400000I-100J1500100D01*
G01*
X145075000Y-63644200D02*
G75*
G03*
X143375000Y-65344231I0J-1700000D01*
G01*
X284730044Y-125739623D02*
G75*
G03*
X278630834Y-53426319I-134855044J25039623D01*
G01*
X278630849Y-53426314D02*
G75*
G03*
X273937197Y-50149623I-4693549J-1723186D01*
G01*
X143375000Y-72400000D02*
X143375000Y-65344231D01*
X25812803Y-50149624D02*
G75*
G03*
X21119167Y-53426319I-3J-4999996D01*
G01*
X132680598Y-152496012D02*
G75*
G03*
X138569252Y-153079623I5888602J29416012D01*
G01*
X15019944Y-125739625D02*
G75*
G03*
X18955029Y-129730113I4916656J912925D01*
G01*
X145075000Y-50149623D02*
X145075000Y-63644231D01*
X161178555Y-153079627D02*
G75*
G03*
X167067208Y-152496009I45J29999327D01*
G01*
X154675000Y-50149623D02*
X273937197Y-50149623D01*
X154675000Y-50149623D02*
X154675000Y-63644230D01*
X138569252Y-153079623D02*
X161178555Y-153079623D01*
X132680599Y-152496009D02*
X18955029Y-129730113D01*
M02*
