M48
; DRILL file {KiCad 7.0.10} date Tue Jan  7 08:37:26 2025
; FORMAT={-:-/ absolute / inch / decimal}
; #@! TF.CreationDate,2025-01-07T08:37:26+09:00
; #@! TF.GenerationSoftware,Kicad,Pcbnew,7.0.10
; #@! TF.FileFunction,Plated,1,2,PTH
FMAT,2
INCH
; #@! TA.AperFunction,Plated,PTH,ViaDrill
T1C0.0157
; #@! TA.AperFunction,Plated,PTH,ComponentDrill
T2C0.0315
; #@! TA.AperFunction,Plated,PTH,ComponentDrill
T3C0.0394
; #@! TA.AperFunction,Plated,PTH,ComponentDrill
T4C0.0413
; #@! TA.AperFunction,Plated,PTH,ComponentDrill
T5C0.0807
%
G90
G05
T1
X0.5517Y-4.3595
X0.5564Y-3.5902
X0.6663Y-2.8324
X0.6804Y-5.0199
X0.9209Y-3.5889
X0.9287Y-2.0349
X1.0161Y-4.4412
X1.0718Y-2.8404
X1.222Y-2.089
X1.6713Y-3.6281
X1.8208Y-2.8791
X1.9532Y-4.4809
X1.9719Y-2.1286
X2.0116Y-2.0087
X2.3757Y-2.1688
X2.4096Y-5.4027
X2.4222Y-3.5894
X2.5723Y-2.8397
X2.7219Y-2.0894
X2.8246Y-3.6673
X2.8602Y-3.7091
X3.3887Y-3.5886
X3.3887Y-3.6279
X3.3982Y-2.8791
X3.4119Y-2.0189
X3.4864Y-4.4415
X3.4864Y-4.4809
X3.5413Y-2.8396
X3.5413Y-2.8791
X3.5413Y-2.9185
X3.6427Y-4.5461
X3.6848Y-2.089
X3.6848Y-2.1283
X3.6848Y-2.1677
X3.7298Y-5.6604
X3.7824Y-2.1689
X4.07Y-3.8725
X4.2198Y-3.1225
X4.3355Y-4.7954
X4.3698Y-2.3736
X4.4903Y-2.0104
X4.7621Y-4.2003
X4.8342Y-2.501
X4.9121Y-3.4505
X5.0136Y-4.2657
X5.0136Y-4.3051
X5.0136Y-4.3444
X5.0136Y-4.3838
X5.0462Y-4.4215
X5.0623Y-2.7007
X5.1139Y-5.1591
X5.136Y-4.4731
X5.1563Y-3.4736
X5.1563Y-3.513
X5.1563Y-3.5523
X5.1563Y-3.5917
X5.2Y-4.8331
X5.2463Y-4.2657
X5.2648Y-4.4808
X5.2768Y-3.8618
X5.3042Y-2.7619
X5.3042Y-2.8013
X5.3042Y-2.8406
X5.3404Y-3.4736
X5.3435Y-5.9772
X5.3647Y-5.2243
X5.3647Y-5.2636
X5.3876Y-3.5191
X5.4024Y-4.345
X5.4039Y-2.529
X5.4048Y-4.4176
X5.4093Y-5.8884
X5.431Y-3.5881
X5.4775Y-3.1126
X5.5318Y-4.4952
X5.5565Y-4.3799
X5.6473Y-3.2405
X5.6672Y-2.0164
X5.7152Y-3.3027
X5.7245Y-4.2696
X5.7393Y-4.1559
X5.7831Y-3.3636
X5.7964Y-5.2243
X5.8993Y-4.8859
X5.8993Y-5.5778
X5.9069Y-4.3091
X6.0077Y-5.2243
X6.0492Y-3.3623
X6.0856Y-5.2636
X6.1247Y-3.8456
X6.1305Y-2.0135
X6.1668Y-3.3039
X6.1879Y-3.6859
X6.1884Y-3.646
X6.2014Y-5.7384
X6.2656Y-4.312
X6.3055Y-3.5191
X6.3417Y-3.1233
X6.3798Y-3.5988
X6.3802Y-3.6834
X6.4153Y-3.5556
X6.416Y-3.6465
X6.4364Y-5.2243
X6.4364Y-5.2636
X6.453Y-5.9774
X6.497Y-2.7619
X6.497Y-2.8013
X6.497Y-2.8406
X6.497Y-2.88
X6.5923Y-4.8431
X6.6294Y-3.5191
X6.6294Y-3.5585
X6.6294Y-3.5978
X6.6344Y-5.1811
X6.6862Y-2.7224
X6.7707Y-4.2725
X6.7707Y-4.3118
X6.7707Y-4.3512
X6.7707Y-4.3906
X6.8364Y-3.4722
X6.9865Y-4.2219
X6.9984Y-2.4956
X7.0474Y-2.6541
X7.1073Y-2.7852
X7.2841Y-4.8711
X7.3048Y-2.0055
X7.3789Y-2.3944
X7.5288Y-3.1444
X7.6786Y-3.8943
X8.0712Y-2.1453
X8.1056Y-4.5682
X8.1251Y-5.6589
X8.18Y-2.0606
X8.18Y-2.0999
X8.18Y-2.1393
X8.2212Y-2.8953
X8.3217Y-4.4388
X8.3217Y-4.4782
X8.3265Y-2.812
X8.3265Y-2.8514
X8.3265Y-2.8907
X8.3711Y-3.6452
X8.384Y-2.0083
X8.4763Y-3.562
X8.4763Y-3.6014
X8.4763Y-3.6407
X8.4763Y-3.6801
X8.5873Y-2.8896
X8.862Y-3.6407
X8.9073Y-3.6778
X8.9284Y-4.4782
X9.022Y-2.0611
X9.1721Y-2.812
X9.2614Y-4.5757
X9.3221Y-3.562
X9.4225Y-5.3995
X9.772Y-2.0991
X9.8106Y-2.0098
X9.9221Y-2.8514
X9.941Y-2.14
X10.0721Y-3.6014
X10.3122Y-4.4376
X10.5221Y-2.0611
X10.672Y-2.812
X10.8221Y-3.562
X10.8665Y-2.0366
X11.1248Y-5.0211
X11.1362Y-2.8385
X11.2488Y-3.5914
X11.2497Y-4.3674
T2
X5.6006Y-2.1549
X5.6006Y-2.2549
X5.6006Y-2.3549
X5.6006Y-2.4549
X5.6006Y-2.5549
X5.6006Y-2.6549
X5.6006Y-2.7549
X5.6006Y-2.8549
X5.6006Y-2.9549
X5.7006Y-2.9549
X5.8006Y-2.9549
X5.9006Y-2.9549
X6.0006Y-2.9549
X6.1006Y-2.9549
X6.2006Y-2.1549
X6.2006Y-2.2549
X6.2006Y-2.3549
X6.2006Y-2.4549
X6.2006Y-2.5549
X6.2006Y-2.6549
X6.2006Y-2.7549
X6.2006Y-2.8549
X6.2006Y-2.9549
T3
X5.6937Y-3.9252
X5.7097Y-4.0039
X5.7372Y-3.8583
X5.8612Y-3.7737
X5.8612Y-4.1715
X5.94Y-3.7576
X5.94Y-4.1554
X6.0915Y-3.9252
X6.1075Y-4.0039
T4
X2.1927Y-4.688
X2.1927Y-5.0148
X2.4112Y-4.5817
X2.6297Y-4.688
X2.6455Y-4.9872
X9.1715Y-4.688
X9.1715Y-5.0148
X9.39Y-4.5817
X9.6085Y-4.688
X9.6242Y-4.9872
T5
G00X2.1898Y-4.8425
M15
G01X2.1898Y-4.8602
M16
G05
G00X2.6327Y-4.8425
M15
G01X2.6327Y-4.8602
M16
G05
G00X9.1685Y-4.8425
M15
G01X9.1685Y-4.8602
M16
G05
G00X9.6114Y-4.8425
M15
G01X9.6114Y-4.8602
M16
G05
M30
