%TF.GenerationSoftware,KiCad,Pcbnew,7.0.10*%
%TF.CreationDate,2025-01-07T08:37:08+09:00*%
%TF.ProjectId,editor,65646974-6f72-42e6-9b69-6361645f7063,rev?*%
%TF.SameCoordinates,Original*%
%TF.FileFunction,Paste,Bot*%
%TF.FilePolarity,Positive*%
%FSLAX46Y46*%
G04 Gerber Fmt 4.6, Leading zero omitted, Abs format (unit mm)*
G04 Created by KiCad (PCBNEW 7.0.10) date 2025-01-07 08:37:08*
%MOMM*%
%LPD*%
G01*
G04 APERTURE LIST*
G04 Aperture macros list*
%AMRoundRect*
0 Rectangle with rounded corners*
0 $1 Rounding radius*
0 $2 $3 $4 $5 $6 $7 $8 $9 X,Y pos of 4 corners*
0 Add a 4 corners polygon primitive as box body*
4,1,4,$2,$3,$4,$5,$6,$7,$8,$9,$2,$3,0*
0 Add four circle primitives for the rounded corners*
1,1,$1+$1,$2,$3*
1,1,$1+$1,$4,$5*
1,1,$1+$1,$6,$7*
1,1,$1+$1,$8,$9*
0 Add four rect primitives between the rounded corners*
20,1,$1+$1,$2,$3,$4,$5,0*
20,1,$1+$1,$4,$5,$6,$7,0*
20,1,$1+$1,$6,$7,$8,$9,0*
20,1,$1+$1,$8,$9,$2,$3,0*%
%AMRotRect*
0 Rectangle, with rotation*
0 The origin of the aperture is its center*
0 $1 length*
0 $2 width*
0 $3 Rotation angle, in degrees counterclockwise*
0 Add horizontal line*
21,1,$1,$2,0,0,$3*%
G04 Aperture macros list end*
%ADD10RoundRect,0.100000X0.600000X0.400000X-0.600000X0.400000X-0.600000X-0.400000X0.600000X-0.400000X0*%
%ADD11RotRect,2.600000X2.600000X22.619000*%
%ADD12R,2.600000X2.600000*%
%ADD13RoundRect,0.100000X-0.400000X0.600000X-0.400000X-0.600000X0.400000X-0.600000X0.400000X0.600000X0*%
%ADD14RoundRect,0.100000X0.400009X0.599994X-0.707690X0.138472X-0.400009X-0.599994X0.707690X-0.138472X0*%
%ADD15RotRect,2.600000X2.600000X337.381000*%
%ADD16RoundRect,0.100000X0.707690X0.138472X-0.400009X0.599994X-0.707690X-0.138472X0.400009X-0.599994X0*%
%ADD17RoundRect,0.400000X-1.200000X-0.400000X1.200000X-0.400000X1.200000X0.400000X-1.200000X0.400000X0*%
%ADD18RoundRect,0.400000X-0.400000X-1.200000X0.400000X-1.200000X0.400000X1.200000X-0.400000X1.200000X0*%
G04 APERTURE END LIST*
D10*
%TO.C,D34*%
X236780000Y-94900000D03*
X233230000Y-94900000D03*
%TD*%
D11*
%TO.C,SW32*%
X203509089Y-112098540D03*
X191485971Y-114832974D03*
%TD*%
D10*
%TO.C,D24*%
X271070000Y-75850000D03*
X267520000Y-75850000D03*
%TD*%
D12*
%TO.C,SW25*%
X27720000Y-106600000D03*
X15570000Y-104500000D03*
%TD*%
D13*
%TO.C,D52*%
X147725000Y-112425000D03*
X147725000Y-115975000D03*
%TD*%
D10*
%TO.C,D46*%
X264879000Y-115450000D03*
X261329000Y-115450000D03*
%TD*%
%TO.C,D26*%
X42470000Y-94900000D03*
X38920000Y-94900000D03*
%TD*%
D14*
%TO.C,D8*%
X187420572Y-64852144D03*
X184143628Y-66217480D03*
%TD*%
%TO.C,D9*%
X205005298Y-57525486D03*
X201728354Y-58890822D03*
%TD*%
D15*
%TO.C,SW40*%
X109581367Y-138293949D03*
X99173575Y-131682568D03*
%TD*%
D12*
%TO.C,SW34*%
X241080000Y-106600000D03*
X228930000Y-104500000D03*
%TD*%
D16*
%TO.C,D18*%
X124765972Y-90671188D03*
X121489028Y-89305852D03*
%TD*%
D10*
%TO.C,D1*%
X31040000Y-56800000D03*
X27490000Y-56800000D03*
%TD*%
D13*
%TO.C,D54*%
X139125000Y-108425000D03*
X139125000Y-111975000D03*
%TD*%
D12*
%TO.C,SW35*%
X260130000Y-106600000D03*
X247980000Y-104500000D03*
%TD*%
%TO.C,SW14*%
X50580000Y-87550000D03*
X38430000Y-85450000D03*
%TD*%
D14*
%TO.C,D43*%
X188299692Y-126398032D03*
X185022748Y-127763368D03*
%TD*%
D15*
%TO.C,SW18*%
X124235391Y-103125041D03*
X113827599Y-96513660D03*
%TD*%
%TO.C,SW39*%
X91996641Y-130967291D03*
X81588849Y-124355910D03*
%TD*%
%TO.C,SW6*%
X128045103Y-84074983D03*
X117637311Y-77463602D03*
%TD*%
D16*
%TO.C,D30*%
X120956260Y-109721245D03*
X117679316Y-108355909D03*
%TD*%
D12*
%TO.C,SW13*%
X31530000Y-87550000D03*
X19380000Y-85450000D03*
%TD*%
D15*
%TO.C,SW17*%
X106650665Y-95798383D03*
X96242873Y-89187002D03*
%TD*%
D11*
%TO.C,SW9*%
X213474390Y-66671768D03*
X201451272Y-69406202D03*
%TD*%
D13*
%TO.C,D47*%
X134825000Y-106425000D03*
X134825000Y-109975000D03*
%TD*%
D10*
%TO.C,D45*%
X226779000Y-115450000D03*
X223229000Y-115450000D03*
%TD*%
D12*
%TO.C,SW11*%
X252510000Y-68500000D03*
X240360000Y-66400000D03*
%TD*%
D15*
%TO.C,SW30*%
X120425678Y-122175098D03*
X110017886Y-115563717D03*
%TD*%
D13*
%TO.C,D53*%
X152025000Y-112425000D03*
X152025000Y-115975000D03*
%TD*%
D10*
%TO.C,D14*%
X46280000Y-75850000D03*
X42730000Y-75850000D03*
%TD*%
D11*
%TO.C,SW43*%
X196768673Y-135544050D03*
X184745555Y-138278484D03*
%TD*%
D10*
%TO.C,D23*%
X252020000Y-75850000D03*
X248470000Y-75850000D03*
%TD*%
D11*
%TO.C,SW21*%
X217284103Y-85721825D03*
X205260985Y-88456259D03*
%TD*%
D10*
%TO.C,D10*%
X229160000Y-56800000D03*
X225610000Y-56800000D03*
%TD*%
%TO.C,D3*%
X69140000Y-56800000D03*
X65590000Y-56800000D03*
%TD*%
D14*
%TO.C,D31*%
X177455270Y-110278916D03*
X174178326Y-111644252D03*
%TD*%
D12*
%TO.C,SW12*%
X271560000Y-68500000D03*
X259410000Y-66400000D03*
%TD*%
D14*
%TO.C,D21*%
X208815010Y-76575544D03*
X205538066Y-77940880D03*
%TD*%
D11*
%TO.C,SW44*%
X214353399Y-128217392D03*
X202330281Y-130951826D03*
%TD*%
D16*
%TO.C,D39*%
X92527223Y-118513438D03*
X89250279Y-117148102D03*
%TD*%
D15*
%TO.C,SW41*%
X129363949Y-146537003D03*
X118956157Y-139925622D03*
%TD*%
D12*
%TO.C,SW3*%
X73440000Y-68500000D03*
X61290000Y-66400000D03*
%TD*%
D11*
%TO.C,SW42*%
X176986092Y-143787103D03*
X164962974Y-146521537D03*
%TD*%
D16*
%TO.C,D16*%
X89596520Y-76017872D03*
X86319576Y-74652536D03*
%TD*%
D14*
%TO.C,D32*%
X195039996Y-102952259D03*
X191763052Y-104317595D03*
%TD*%
D10*
%TO.C,D12*%
X267260000Y-56800000D03*
X263710000Y-56800000D03*
%TD*%
D16*
%TO.C,D17*%
X107181246Y-83344530D03*
X103904302Y-81979194D03*
%TD*%
D12*
%TO.C,SW26*%
X46770000Y-106600000D03*
X34620000Y-104500000D03*
%TD*%
D16*
%TO.C,D4*%
X93406233Y-56967815D03*
X90129289Y-55602479D03*
%TD*%
D10*
%TO.C,D13*%
X27230000Y-75850000D03*
X23680000Y-75850000D03*
%TD*%
D12*
%TO.C,SW2*%
X54390000Y-68500000D03*
X42240000Y-66400000D03*
%TD*%
D13*
%TO.C,D48*%
X164925000Y-106425000D03*
X164925000Y-109975000D03*
%TD*%
D10*
%TO.C,D37*%
X25801000Y-115450000D03*
X22251000Y-115450000D03*
%TD*%
D12*
%TO.C,SW10*%
X233460000Y-68500000D03*
X221310000Y-66400000D03*
%TD*%
%TO.C,SW1*%
X35340000Y-68500000D03*
X23190000Y-66400000D03*
%TD*%
D10*
%TO.C,D35*%
X255830000Y-94900000D03*
X252280000Y-94900000D03*
%TD*%
D15*
%TO.C,SW4*%
X92875651Y-69421668D03*
X82467859Y-62810287D03*
%TD*%
D12*
%TO.C,SW46*%
X272989000Y-125650000D03*
X260839000Y-123550000D03*
%TD*%
D10*
%TO.C,D22*%
X232970000Y-75850000D03*
X229420000Y-75850000D03*
%TD*%
D11*
%TO.C,SW20*%
X199699377Y-93048483D03*
X187676259Y-95782917D03*
%TD*%
D15*
%TO.C,SW28*%
X85256226Y-107521783D03*
X74848434Y-100910402D03*
%TD*%
D16*
%TO.C,D29*%
X103371534Y-102394588D03*
X100094590Y-101029252D03*
%TD*%
D12*
%TO.C,SW15*%
X69630000Y-87550000D03*
X57480000Y-85450000D03*
%TD*%
%TO.C,SW37*%
X33911000Y-125650000D03*
X21761000Y-123550000D03*
%TD*%
D14*
%TO.C,D19*%
X173645558Y-91228859D03*
X170368614Y-92594195D03*
%TD*%
D10*
%TO.C,D11*%
X248210000Y-56800000D03*
X244660000Y-56800000D03*
%TD*%
D14*
%TO.C,D44*%
X205884307Y-119071109D03*
X202607363Y-120436445D03*
%TD*%
D15*
%TO.C,SW29*%
X102840952Y-114848440D03*
X92433160Y-108237059D03*
%TD*%
D10*
%TO.C,D2*%
X50090000Y-56800000D03*
X46540000Y-56800000D03*
%TD*%
D17*
%TO.C,U1*%
X158295000Y-54734231D03*
X158295000Y-57274231D03*
X158295000Y-59814231D03*
X158295000Y-62354231D03*
X158295000Y-64894231D03*
X158295000Y-67434231D03*
X158295000Y-69974231D03*
X158295000Y-72514231D03*
X158295000Y-75054231D03*
D18*
X154955000Y-75854231D03*
X152415000Y-75854231D03*
X149875000Y-75854231D03*
X147335000Y-75854231D03*
X144795000Y-75854231D03*
D17*
X141455000Y-75054231D03*
X141455000Y-72514231D03*
X141455000Y-69974231D03*
X141455000Y-67434231D03*
X141455000Y-64894231D03*
X141455000Y-62354231D03*
X141455000Y-59814231D03*
X141455000Y-57274231D03*
X141455000Y-54734231D03*
%TD*%
D16*
%TO.C,D41*%
X129894530Y-134083150D03*
X126617586Y-132717814D03*
%TD*%
%TO.C,D40*%
X110111839Y-125840362D03*
X106834895Y-124475026D03*
%TD*%
D15*
%TO.C,SW5*%
X110460377Y-76748325D03*
X100052585Y-70136944D03*
%TD*%
D10*
%TO.C,D15*%
X65330000Y-75850000D03*
X61780000Y-75850000D03*
%TD*%
D14*
%TO.C,D20*%
X191230284Y-83902201D03*
X187953340Y-85267537D03*
%TD*%
D12*
%TO.C,SW36*%
X279180000Y-106600000D03*
X267030000Y-104500000D03*
%TD*%
D11*
%TO.C,SW8*%
X195889664Y-73998425D03*
X183866546Y-76732859D03*
%TD*%
D16*
%TO.C,D28*%
X85786808Y-95067930D03*
X82509864Y-93702594D03*
%TD*%
D10*
%TO.C,D38*%
X49613500Y-115450000D03*
X46063500Y-115450000D03*
%TD*%
D11*
%TO.C,SW31*%
X185924363Y-119425198D03*
X173901245Y-122159632D03*
%TD*%
D10*
%TO.C,D36*%
X274880000Y-94900000D03*
X271330000Y-94900000D03*
%TD*%
%TO.C,D25*%
X23420000Y-94900000D03*
X19870000Y-94900000D03*
%TD*%
D16*
%TO.C,D6*%
X128575685Y-71621130D03*
X125298741Y-70255794D03*
%TD*%
D12*
%TO.C,SW24*%
X275370000Y-87550000D03*
X263220000Y-85450000D03*
%TD*%
D13*
%TO.C,D49*%
X160625000Y-108425000D03*
X160625000Y-111975000D03*
%TD*%
D14*
%TO.C,D7*%
X169835846Y-72178801D03*
X166558902Y-73544137D03*
%TD*%
D12*
%TO.C,SW22*%
X237270000Y-87550000D03*
X225120000Y-85450000D03*
%TD*%
D11*
%TO.C,SW33*%
X221093815Y-104771883D03*
X209070697Y-107506317D03*
%TD*%
D13*
%TO.C,D51*%
X143425000Y-110425000D03*
X143425000Y-113975000D03*
%TD*%
D10*
%TO.C,D27*%
X61520000Y-94900000D03*
X57970000Y-94900000D03*
%TD*%
D12*
%TO.C,SW27*%
X65820000Y-106600000D03*
X53670000Y-104500000D03*
%TD*%
D11*
%TO.C,SW7*%
X178304938Y-81325083D03*
X166281820Y-84059517D03*
%TD*%
D14*
%TO.C,D42*%
X168517000Y-134640821D03*
X165240056Y-136006157D03*
%TD*%
D15*
%TO.C,SW16*%
X89065939Y-88471725D03*
X78658147Y-81860344D03*
%TD*%
D12*
%TO.C,SW23*%
X256320000Y-87550000D03*
X244170000Y-85450000D03*
%TD*%
D13*
%TO.C,D50*%
X156325000Y-110425000D03*
X156325000Y-113975000D03*
%TD*%
D16*
%TO.C,D5*%
X110990959Y-64294473D03*
X107714015Y-62929137D03*
%TD*%
D11*
%TO.C,SW19*%
X182114651Y-100375141D03*
X170091533Y-103109575D03*
%TD*%
D14*
%TO.C,D33*%
X212624722Y-95625601D03*
X209347778Y-96990937D03*
%TD*%
M02*
